<svg viewBox="0 0 36 36" fill="none" xmlns="http://www.w3.org/2000/svg">
  <path
    d="M17.4 4h1.2l1.3.5 10 4.6c.6.3 1 .5 1.2.8.3.3.6.6.7 1 .2.5.2.8.2 1.5v12.2c0 .7 0 1-.2 1.5-.1.4-.4.7-.7 1l-1.2.8-10.2 4.7-1.1.3h-1.2c-.4 0-.7-.1-1.3-.4l-10-4.6c-.6-.3-1-.5-1.2-.8-.3-.3-.6-.6-.7-1a4 4 0 01-.2-1.5V12.2c0-.6 0-.9.2-1.3.1-.4.4-.7.7-1L6 9.1l10.2-4.7 1.1-.3zm-11 8.7v12.7l.7.3 9.7 4.5V17.5l-.2-.1-10.3-4.7zm23.3 0l-10.3 4.7h-.2v12.8l9.7-4.5c.3 0 .4-.1.5-.2h.1l.1-.2V12.6zM14.4 7.9l-6.4 3 9.5 4.3c.3.1.6.2.8 0h.2l6-2.7-10.1-4.6zm3.8-1.5h-.4c-.1 0-.3 0-.7.3l-2.7 1.2 10 4.6 3.6-1.7-9-4.1-.7-.3h-.1z"
    />
  <path
    d="M19.6 11.1c0 .6-.7 1.1-1.6 1.1-1 0-1.6-.5-1.6-1.1 0-.6.7-1.1 1.6-1.1 1 0 1.6.5 1.6 1.1zM10.5 17a1.5 1.5 0 11-3 0 1.5 1.5 0 013 0zM13 21.3a1.5 1.5 0 11-3 0 1.5 1.5 0 013 0zM25.5 17a1.5 1.5 0 103 0 1.5 1.5 0 00-3 0zM15.5 25.5a1.5 1.5 0 11-3 0 1.5 1.5 0 013 0zM20.5 25.5a1.5 1.5 0 103 0 1.5 1.5 0 00-3 0z"
    />
</svg>
